<svg width="218" height="44" viewBox="0 0 218 44" fill="none" xmlns="http://www.w3.org/2000/svg">
<g filter="url(#filter0_d_987_20950)">
<rect x="2" y="1" width="213.63" height="40" rx="8" fill="#F9F9F9" shape-rendering="crispEdges"/>
<path fill-rule="evenodd" clip-rule="evenodd" d="M22.8718 9.44125L14 15.3484V26.6524L24.1483 19.8934C24.8548 19.4245 25.4266 18.3555 25.4266 17.5091V10.8087C25.4266 9.11404 24.2829 8.5003 22.8718 9.44125Z" fill="#BBA0CB"/>
<path fill-rule="evenodd" clip-rule="evenodd" d="M14 15.3488L22.4874 20.9997L24.148 22.1058C24.8551 22.5766 25.4269 23.6437 25.4269 24.492V31.1923C25.4269 32.3474 24.8946 33.0001 24.1091 33.0001C23.7424 33.0001 23.3207 32.8583 22.8721 32.5598L14.0003 26.6526L14 15.3488Z" fill="#7F3F97"/>
<path fill-rule="evenodd" clip-rule="evenodd" d="M28.7579 9.44125L37.6302 15.3484V26.6524L27.4813 19.8934C26.7761 19.4245 26.203 18.3555 26.203 17.5091V10.8087C26.203 9.11404 27.3479 8.5003 28.7579 9.44125Z" fill="#BBA0CB"/>
<path fill-rule="evenodd" clip-rule="evenodd" d="M37.6302 15.3488V26.6522L28.7576 32.5598C28.309 32.8583 27.8879 33.0001 27.5212 33.0001C26.7358 33.0001 26.2034 32.3474 26.2034 31.1923V24.492C26.2034 23.6437 26.7758 22.5766 27.4817 22.1058L29.1429 20.9997L37.6302 15.3488Z" fill="#7F3F97"/>
<path d="M54.9082 25.724C52.0242 25.724 50.2742 23.764 50.2742 20.544C50.2742 17.324 52.0242 15.336 54.9082 15.336C57.8202 15.336 59.5562 17.324 59.5562 20.544C59.5562 23.764 57.8202 25.724 54.9082 25.724ZM54.9082 24.338C56.8402 24.338 57.9882 22.938 57.9882 20.544C57.9882 18.15 56.8402 16.722 54.9082 16.722C53.0042 16.722 51.8422 18.15 51.8422 20.544C51.8422 22.938 53.0042 24.338 54.9082 24.338ZM61.0025 27.6V18.052H62.4025L62.4305 19.186C62.8645 18.332 63.6905 17.884 64.6845 17.884C66.8685 17.884 67.8765 19.676 67.8765 21.776C67.8765 23.876 66.8545 25.668 64.6845 25.668C63.7185 25.668 62.8785 25.22 62.4865 24.492V27.6H61.0025ZM64.4185 24.38C65.6085 24.38 66.3365 23.414 66.3365 21.776C66.3365 20.138 65.6085 19.172 64.4185 19.172C63.2285 19.172 62.4865 20.054 62.4865 21.776C62.4865 23.498 63.2145 24.38 64.4185 24.38ZM72.5731 25.668C70.4171 25.668 69.0451 24.128 69.0451 21.776C69.0451 19.424 70.4171 17.884 72.5311 17.884C74.5611 17.884 75.9471 19.326 75.9471 21.832V22.21H70.5991C70.6691 23.666 71.4111 24.394 72.5871 24.394C73.4691 24.394 74.0571 23.96 74.2951 23.26L75.8351 23.358C75.4431 24.744 74.2251 25.668 72.5731 25.668ZM74.3651 21.09C74.2811 19.774 73.5531 19.144 72.5311 19.144C71.4811 19.144 70.7671 19.83 70.5991 21.09H74.3651ZM77.5318 25.5V18.052H78.8898L78.9318 19.34C79.3238 18.332 80.1778 17.884 81.1858 17.884C82.8518 17.884 83.7058 19.088 83.7058 20.712V25.5H82.2218V21.16C82.2218 19.844 81.8158 19.13 80.7798 19.13C79.7298 19.13 79.0158 19.844 79.0158 21.16V25.5H77.5318ZM89.2076 25.5V18.052H90.6916V25.5H89.2076ZM89.1796 16.974V15.49H90.7336V16.974H89.1796ZM92.5982 25.5V18.052H93.9562L93.9982 19.34C94.3902 18.332 95.2442 17.884 96.2522 17.884C97.9182 17.884 98.7722 19.088 98.7722 20.712V25.5H97.2882V21.16C97.2882 19.844 96.8822 19.13 95.8462 19.13C94.7962 19.13 94.0822 19.844 94.0822 21.16V25.5H92.5982ZM108.404 25.724C105.716 25.724 103.868 23.778 103.868 20.544C103.868 17.338 105.688 15.336 108.418 15.336C110.882 15.336 112.198 16.652 112.632 18.822L111.036 18.906C110.77 17.548 109.93 16.722 108.418 16.722C106.612 16.722 105.436 18.178 105.436 20.544C105.436 22.924 106.626 24.338 108.404 24.338C110.014 24.338 110.868 23.428 111.106 21.944L112.702 22.028C112.324 24.282 110.854 25.724 108.404 25.724ZM117.431 25.668C115.289 25.668 113.889 24.142 113.889 21.776C113.889 19.41 115.289 17.884 117.431 17.884C119.559 17.884 120.959 19.41 120.959 21.776C120.959 24.142 119.559 25.668 117.431 25.668ZM117.431 24.38C118.691 24.38 119.419 23.414 119.419 21.776C119.419 20.138 118.691 19.172 117.431 19.172C116.171 19.172 115.429 20.138 115.429 21.776C115.429 23.414 116.171 24.38 117.431 24.38ZM125.228 25.668C123.31 25.668 122.106 24.17 122.106 21.776C122.106 19.396 123.31 17.884 125.228 17.884C126.25 17.884 127.104 18.332 127.496 19.102V15.56H128.98V25.5H127.608L127.566 24.38C127.146 25.192 126.264 25.668 125.228 25.668ZM125.62 24.38C126.824 24.38 127.496 23.414 127.496 21.776C127.496 20.124 126.824 19.172 125.62 19.172C124.416 19.172 123.646 20.152 123.646 21.776C123.646 23.372 124.43 24.38 125.62 24.38ZM134.179 25.668C132.023 25.668 130.651 24.128 130.651 21.776C130.651 19.424 132.023 17.884 134.137 17.884C136.167 17.884 137.553 19.326 137.553 21.832V22.21H132.205C132.275 23.666 133.017 24.394 134.193 24.394C135.075 24.394 135.663 23.96 135.901 23.26L137.441 23.358C137.049 24.744 135.831 25.668 134.179 25.668ZM135.971 21.09C135.887 19.774 135.159 19.144 134.137 19.144C133.087 19.144 132.373 19.83 132.205 21.09H135.971ZM141.306 25.668C139.766 25.668 138.758 24.926 138.758 23.638C138.758 22.364 139.514 21.678 141.138 21.356L143.7 20.866C143.7 19.718 143.168 19.144 142.104 19.144C141.152 19.144 140.62 19.578 140.424 20.39L138.884 20.292C139.164 18.808 140.326 17.884 142.104 17.884C144.12 17.884 145.184 19.018 145.184 20.95V23.848C145.184 24.212 145.31 24.324 145.59 24.324H145.856V25.5C145.758 25.528 145.52 25.542 145.31 25.542C144.456 25.542 143.952 25.22 143.826 24.352C143.448 25.136 142.468 25.668 141.306 25.668ZM141.558 24.492C142.888 24.492 143.7 23.652 143.7 22.462V21.986L141.53 22.406C140.634 22.574 140.298 22.924 140.298 23.498C140.298 24.142 140.76 24.492 141.558 24.492ZM147.313 25.5V18.052H148.671L148.713 19.34C149.105 18.332 149.959 17.884 150.967 17.884C152.633 17.884 153.487 19.088 153.487 20.712V25.5H152.003V21.16C152.003 19.844 151.597 19.13 150.561 19.13C149.511 19.13 148.797 19.844 148.797 21.16V25.5H147.313ZM155.745 27.6V26.382H156.641C157.145 26.382 157.341 26.242 157.481 25.892L157.719 25.276H157.257L154.569 18.052H156.137L158.181 23.904L160.141 18.052H161.709L158.741 26.368C158.433 27.222 157.901 27.6 156.865 27.6H155.745ZM164.589 25.5L162.321 18.052H163.875L165.471 23.876L167.109 18.052H168.523L170.161 23.876L171.757 18.052H173.325L171.043 25.5H169.377L167.809 20.18L166.255 25.5H164.589ZM174.67 25.5V15.56H176.154V19.13C176.546 18.276 177.358 17.884 178.338 17.884C179.962 17.884 180.844 19.046 180.844 20.712V25.5H179.36V21.104C179.36 19.774 178.898 19.13 177.946 19.13C176.854 19.13 176.154 19.83 176.154 21.132V25.5H174.67ZM185.845 25.668C183.689 25.668 182.317 24.128 182.317 21.776C182.317 19.424 183.689 17.884 185.803 17.884C187.833 17.884 189.219 19.326 189.219 21.832V22.21H183.871C183.941 23.666 184.683 24.394 185.859 24.394C186.741 24.394 187.329 23.96 187.567 23.26L189.107 23.358C188.715 24.744 187.497 25.668 185.845 25.668ZM187.637 21.09C187.553 19.774 186.825 19.144 185.803 19.144C184.753 19.144 184.039 19.83 183.871 21.09H187.637ZM190.803 25.5V18.052H192.161L192.203 19.466C192.483 18.486 193.057 18.052 193.981 18.052H194.695V19.382H193.981C192.847 19.382 192.287 19.928 192.287 21.104V25.5H190.803ZM199.011 25.668C196.855 25.668 195.483 24.128 195.483 21.776C195.483 19.424 196.855 17.884 198.969 17.884C200.999 17.884 202.385 19.326 202.385 21.832V22.21H197.037C197.107 23.666 197.849 24.394 199.025 24.394C199.907 24.394 200.495 23.96 200.733 23.26L202.273 23.358C201.881 24.744 200.663 25.668 199.011 25.668ZM200.803 21.09C200.719 19.774 199.991 19.144 198.969 19.144C197.919 19.144 197.205 19.83 197.037 21.09H200.803Z" fill="black"/>
</g>
<defs>
<filter id="filter0_d_987_20950" x="0" y="0" width="217.63" height="44" filterUnits="userSpaceOnUse" color-interpolation-filters="sRGB">
<feFlood flood-opacity="0" result="BackgroundImageFix"/>
<feColorMatrix in="SourceAlpha" type="matrix" values="0 0 0 0 0 0 0 0 0 0 0 0 0 0 0 0 0 0 127 0" result="hardAlpha"/>
<feOffset dy="1"/>
<feGaussianBlur stdDeviation="1"/>
<feComposite in2="hardAlpha" operator="out"/>
<feColorMatrix type="matrix" values="0 0 0 0 0 0 0 0 0 0 0 0 0 0 0 0 0 0 0.08 0"/>
<feBlend mode="normal" in2="BackgroundImageFix" result="effect1_dropShadow_987_20950"/>
<feBlend mode="normal" in="SourceGraphic" in2="effect1_dropShadow_987_20950" result="shape"/>
</filter>
</defs>
</svg>
